# xmcd
# Track frame offsets:
# 150
# 10670
# 21832
# 36951
# 47713
# 58375
# 71402
# 82506
# 98150
# 108561
# 119980
# 129385
# 141603
# 153505
# 166737
# 178805
# 191418
# 206640
# 219306
# 230680
# 242636
# 256306
# 271858
# 283115
# 296404
# 305994
#
# Disc length: 4321 seconds
# Revision: 0
# Processed by: cddbd v1.5.2PL0 Copyright (c) Steve Scherf et al.
# Submitted via: VisiTrax 2.11.3.279 - For more info visit www.synapsa.com
#
DISCID=8610df1a
DTITLE=Geno Washington and The Ram Jam Band - Geno! The Picadilly and Pye Studi
DTITLE=o Recordings 1966-72: *ReMastered Tracks: CD1: Tracks 1-14: The Single
DTITLE=s 1966-67: Tracks 15-26 Studio Album "Shake A Tail Feather" 1967
DYEAR=1966
DGENRE=R&B
TTITLE0=Water*
TTITLE1=Understanding*
TTITLE2=Hi Hi Hazel*
TTITLE3=Beach Basah*
TTITLE4=Que Sera Sera*
TTITLE5=All I Need*
TTITLE6=Michael*
TTITLE7=(I Gotta) Hold On To My Love*
TTITLE8=Always*
TTITLE9=If You Knew*
TTITLE10=She Shot A Hole In My Soul*
TTITLE11=I've Been Hurt By Love*
TTITLE12=Tell It Like It Is*
TTITLE13=Girl I Want To Marry You*
TTITLE14=Raise Your Hand*
TTITLE15=You Got Me Hummin'*
TTITLE16=Three Time Loser*
TTITLE17=Tell It Like It Is*
TTITLE18=Use Me*
TTITLE19=Understanding* - Turn It Over*
TTITLE20=Knock On Wood*
TTITLE21=Bonie Moronie*
TTITLE22=Never Like This Before*
TTITLE23=I'm Your Puppet*
TTITLE24=Who's Foolin' Who*
TTITLE25=(I Gotta) Hold On To My Love*
EXTD=Compilation and ReMastering: Sanctuary/Demon/Edsel: 2016\nTracks 1-14: T
EXTD=he Singles 1966-67: Tracks 15-26 Studio Album "Shake A Tail Feather" 1
EXTD=967
EXTT0=
EXTT1=
EXTT2=
EXTT3=
EXTT4=
EXTT5=
EXTT6=
EXTT7=
EXTT8=
EXTT9=
EXTT10=
EXTT11=
EXTT12=
EXTT13=
EXTT14=
EXTT15=
EXTT16=
EXTT17=
EXTT18=
EXTT19=
EXTT20=
EXTT21=
EXTT22=
EXTT23=
EXTT24=
EXTT25=
PLAYORDER=
